{
  "accessors": [
    {
      "bufferView": 2,
      "componentType": 5126,
      "count": 15309,
      "max": [
        0.9175570011138916,
        0.9219139814376831,
        0.9314259886741638
      ],
      "min": [
        -0.9404360055923462,
        -0.9360799789428711,
        -0.926567018032074
      ],
      "type": "VEC3"
    },
    {
      "bufferView": 2,
      "byteOffset": 183708,
      "componentType": 5126,
      "count": 15309,
      "max": [
        1.0,
        1.0,
        1.0
      ],
      "min": [
        -1.0,
        -1.0,
        -1.0
      ],
      "type": "VEC3"
    },
    {
      "bufferView": 3,
      "componentType": 5126,
      "count": 15309,
      "max": [
        1.0,
        1.0,
        1.0,
        1.0
      ],
      "min": [
        -1.0,
        -1.0,
        -1.0,
        1.0
      ],
      "type": "VEC4"
    },
    {
      "bufferView": 1,
      "componentType": 5126,
      "count": 15309,
      "max": [
        0.9816669821739197,
        1.0
      ],
      "min": [
        0.0,
        0.36741000413894653
      ],
      "type": "VEC2"
    },
    {
      "bufferView": 0,
      "componentType": 5125,
      "count": 72576,
      "type": "SCALAR"
    },
    {
      "bufferView": 2,
      "byteOffset": 367416,
      "componentType": 5126,
      "count": 15695,
      "max": [
        0.999796986579895,
        0.9997490048408508,
        1.0
      ],
      "min": [
        -0.999796986579895,
        -0.999750018119812,
        -1.0
      ],
      "type": "VEC3"
    },
    {
      "bufferView": 2,
      "byteOffset": 555756,
      "componentType": 5126,
      "count": 15695,
      "max": [
        1.0,
        1.0,
        1.0
      ],
      "min": [
        -1.0,
        -0.9999998807907104,
        -1.0
      ],
      "type": "VEC3"
    },
    {
      "bufferView": 3,
      "byteOffset": 244944,
      "componentType": 5126,
      "count": 15695,
      "max": [
        1.0,
        1.0,
        0.9987249970436096,
        1.0
      ],
      "min": [
        -0.9969760179519653,
        -1.0,
        -0.9998530149459839,
        -1.0
      ],
      "type": "VEC4"
    },
    {
      "bufferView": 1,
      "byteOffset": 122472,
      "componentType": 5126,
      "count": 15695,
      "max": [
        1.0,
        0.9369329810142517
      ],
      "min": [
        0.0,
        0.0
      ],
      "type": "VEC2"
    },
    {
      "bufferView": 0,
      "byteOffset": 290304,
      "componentType": 5125,
      "count": 81792,
      "type": "SCALAR"
    }
  ],
  "asset": {
    "extras": {
      "author": "SHARK FIN (https://sketchfab.com/mo7amed85)",
      "license": "CC-BY-4.0 (http://creativecommons.org/licenses/by/4.0/)",
      "source": "https://sketchfab.com/3d-models/free-hq-pbr-game-model-metallic-sapphire-dice-f4e12f278ea74f648eeaaaec245a4a44",
      "title": "FREE HQ  PBR GAME MODEL :METALLIC +SAPPHIRE DICE"
    },
    "generator": "Sketchfab-12.65.0",
    "version": "2.0"
  },
  "bufferViews": [
    {
      "buffer": 0,
      "byteLength": 617472,
      "name": "floatBufferViews",
      "target": 34963
    },
    {
      "buffer": 0,
      "byteLength": 248032,
      "byteOffset": 617472,
      "byteStride": 8,
      "name": "floatBufferViews",
      "target": 34962
    },
    {
      "buffer": 0,
      "byteLength": 744096,
      "byteOffset": 865504,
      "byteStride": 12,
      "name": "floatBufferViews",
      "target": 34962
    },
    {
      "buffer": 0,
      "byteLength": 496064,
      "byteOffset": 1609600,
      "byteStride": 16,
      "name": "floatBufferViews",
      "target": 34962
    }
  ],
  "buffers": [
    {
      "byteLength": 2105664,
      "uri": "scene.bin"
    }
  ],
  "images": [
    {
      "uri": "textures/Material_002_baseColor.jpeg"
    },
    {
      "uri": "textures/Material_002_metallicRoughness.png"
    },
    {
      "uri": "textures/Material_002_normal.jpeg"
    },
    {
      "uri": "textures/Grape_baseColor.jpeg"
    },
    {
      "uri": "textures/Grape_metallicRoughness.png"
    },
    {
      "uri": "textures/Grape_normal.jpeg"
    }
  ],
  "materials": [
    {
      "doubleSided": true,
      "emissiveFactor": [
        1.0,
        1.0,
        1.0
      ],
      "emissiveTexture": {
        "index": 0
      },
      "name": "Material_002",
      "normalTexture": {
        "index": 2
      },
      "pbrMetallicRoughness": {
        "baseColorTexture": {
          "index": 0
        },
        "metallicRoughnessTexture": {
          "index": 1
        },
        "roughnessFactor": 0.6683333426
      }
    },
    {
      "doubleSided": true,
      "name": "Grape",
      "normalTexture": {
        "index": 5
      },
      "pbrMetallicRoughness": {
        "baseColorTexture": {
          "index": 3
        },
        "metallicFactor": 0.9653030396,
        "metallicRoughnessTexture": {
          "index": 4
        }
      }
    }
  ],
  "meshes": [
    {
      "name": "defaultMaterial",
      "primitives": [
        {
          "attributes": {
            "NORMAL": 1,
            "POSITION": 0,
            "TANGENT": 2,
            "TEXCOORD_0": 3
          },
          "indices": 4,
          "material": 0,
          "mode": 4
        }
      ]
    },
    {
      "name": "defaultMaterial",
      "primitives": [
        {
          "attributes": {
            "NORMAL": 6,
            "POSITION": 5,
            "TANGENT": 7,
            "TEXCOORD_0": 8
          },
          "indices": 9,
          "material": 1,
          "mode": 4
        }
      ]
    }
  ],
  "nodes": [
    {
      "children": [
        1
      ],
      "matrix": [
        1.0,
        0.0,
        0.0,
        0.0,
        0.0,
        2.220446049250313e-16,
        -1.0,
        0.0,
        0.0,
        1.0,
        2.220446049250313e-16,
        0.0,
        0.0,
        0.0,
        0.0,
        1.0
      ],
      "name": "Sketchfab_model"
    },
    {
      "children": [
        2
      ],
      "matrix": [
        1.0,
        0.0,
        0.0,
        0.0,
        0.0,
        -4.371139006309477e-08,
        0.999999999999999,
        0.0,
        0.0,
        -0.999999999999999,
        -4.371139006309477e-08,
        0.0,
        0.0,
        0.0,
        0.0,
        1.0
      ],
      "name": "Collada visual scene group"
    },
    {
      "children": [
        3,
        4
      ],
      "name": "Cube"
    },
    {
      "mesh": 0,
      "name": "defaultMaterial"
    },
    {
      "mesh": 1,
      "name": "defaultMaterial"
    }
  ],
  "samplers": [
    {
      "magFilter": 9729,
      "minFilter": 9987,
      "wrapS": 10497,
      "wrapT": 10497
    }
  ],
  "scene": 0,
  "scenes": [
    {
      "name": "Sketchfab_Scene",
      "nodes": [
        0
      ]
    }
  ],
  "textures": [
    {
      "sampler": 0,
      "source": 0
    },
    {
      "sampler": 0,
      "source": 1
    },
    {
      "sampler": 0,
      "source": 2
    },
    {
      "sampler": 0,
      "source": 3
    },
    {
      "sampler": 0,
      "source": 4
    },
    {
      "sampler": 0,
      "source": 5
    }
  ]
}
