# Blender 4.2.1 LTS
# www.blender.org
mtllib d8.mtl
o Cube
v -1.000000 0.000000 0.000000
v 0.000000 -1.000000 0.000000
v 0.000000 1.000000 0.000000
v 0.000000 0.000000 1.000000
v 1.000000 0.000000 0.000000
v 0.000000 0.000000 -1.000000
vn -0.5774 -0.5774 0.5774
vn -0.5774 0.5774 0.5774
vn -0.5774 -0.5774 -0.5774
vn -0.5774 0.5774 -0.5774
vn 0.5774 -0.5774 0.5774
vn 0.5774 0.5774 0.5774
vn 0.5774 -0.5774 -0.5774
vn 0.5774 0.5774 -0.5774
vt 0.250000 0.625000
vt 0.250000 0.750000
vt 0.125000 0.625000
vt 0.500000 0.000000
vt 0.625000 0.125000
vt 0.500000 0.125000
vt 0.250000 0.500000
vt 0.500000 0.250000
vt 0.375000 0.625000
vt 0.625000 0.875000
vt 0.500000 0.875000
vt 0.500000 0.750000
vt 0.625000 0.375000
vt 0.500000 0.500000
vt 0.500000 0.375000
s 0
f 2/1/1 4/2/1 1/3/1
f 4/4/2 3/5/2 1/6/2
f 2/1/3 1/3/3 6/7/3
f 3/5/4 6/8/4 1/6/4
f 2/1/5 5/9/5 4/2/5
f 3/10/6 4/11/6 5/12/6
f 2/1/7 6/7/7 5/9/7
f 3/13/8 5/14/8 6/15/8
